<?xml version="1.0" encoding="utf-8"?>
<svg version="1.1" id="Layer_1" x="0px" y="0px" width="85px" height="85px" viewBox="0 0 80 80" enable-background="new 0 0 80 80" xmlns="http://www.w3.org/2000/svg">
  <defs>
    <radialGradient gradientUnits="userSpaceOnUse" cx="37.117" cy="59.143" r="29.746" id="gradient-0" gradientTransform="matrix(1.305868, 0, 0, 1.361565, -11.615949, -14.932134)">
      <stop offset="0" style="stop-color: rgba(148, 82, 255, 1)"/>
      <stop offset="1" style="stop-color: rgba(90, 0, 235, 1)"/>
    </radialGradient>
  </defs>
  <g/>
  <path style="stroke: rgb(0, 0, 0); fill: url(#gradient-0);" d="M 22.921 1.078 C 12.248 6.055 7.946 14.348 3.122 25.612 C -3.566 41.216 4.511 62.591 12.257 71.64 C 17.665 77.942 33.961 78.778 42.843 78.778 C 44.382 78.778 50.051 78.502 51.367 78.093 C 54.35 77.166 59.812 76.799 61.862 75.6 C 68.937 71.475 74.628 59.112 76.813 53.396 C 79.659 45.941 77.93 32.294 76.137 26.432 C 74.67 21.641 70.722 13.553 66.621 9.783 C 55.125 -0.793 38.558 0.887 22.641 0.887"/>
  <path style="stroke: rgb(0, 0, 0); fill: rgb(255, 255, 255); paint-order: fill;" d="M 19.143 28.236 C 11.236 45.242 15.663 49.548 20.24 59.71 C 21.581 62.684 27.299 64.219 30.266 65.865 C 38.265 70.295 51.902 67.312 56.802 61.894 C 58.302 60.226 61.731 52.801 62.52 50.179 C 64.959 42.069 62.559 30.235 57.118 24.195 C 52.343 18.907 48.247 20.134 41.933 17.472 C 36.327 15.108 19.139 23.683 19.139 28.392"/>
  <path style="stroke: rgb(0, 0, 0); fill: rgb(220, 189, 243);" d="M 26.105 36.381 C 23.357 41.904 24.729 46.496 28.518 53.197 C 29.803 55.471 31.381 55.331 32.778 56.815 C 33.518 57.601 36.778 58.204 37.875 58.204 C 42.533 58.204 45.023 58.542 48.337 55.029 C 49.271 54.039 52.066 49.928 52.594 48.807 C 53.289 47.336 53.627 44.387 53.627 42.585 C 53.627 41.673 52.798 37.633 52.378 36.737 C 49.793 31.252 41.853 26.907 35.125 28.694 C 31.913 29.545 28.472 32.937 26.01 36.533"/>
  <ellipse style="stroke: rgb(0, 0, 0);" cx="39.715" cy="42.931" rx="5.58" ry="5.733"/>
</svg>